<svg width="22" height="22" viewBox="0 0 22 22" fill="none" xmlns="http://www.w3.org/2000/svg">
<g clip-path="url(#clip0_37_577)">
<path d="M14.0854 3.15149L17.0288 8.24999H20.1666V10.0833H19.0968L18.4029 18.4094C18.3838 18.6385 18.2794 18.852 18.1103 19.0077C17.9412 19.1634 17.7198 19.2499 17.4899 19.25H4.50992C4.28006 19.2499 4.05864 19.1634 3.88954 19.0077C3.72044 18.852 3.616 18.6385 3.59692 18.4094L2.90209 10.0833H1.83325V8.24999H4.97009L7.91442 3.15149L9.50209 4.06816L7.08759 8.24999H14.9113L12.4978 4.06816L14.0854 3.15149ZM17.2571 10.0833H4.74184L5.35325 17.4167H16.6457L17.2571 10.0833ZM11.9166 11.9167V15.5833H10.0833V11.9167H11.9166ZM8.24992 11.9167V15.5833H6.41659V11.9167H8.24992ZM15.5833 11.9167V15.5833H13.7499V11.9167H15.5833Z" fill="#2D2D2D"/>
</g>
<defs>
<clipPath id="clip0_37_577">
<rect width="22" height="22" fill="white"/>
</clipPath>
</defs>
</svg>
