<svg width="22" height="22" viewBox="0 0 22 22" fill="none" xmlns="http://www.w3.org/2000/svg">
<g clip-path="url(#clip0_37_578)">
<path d="M11.0008 4.1516C13.1541 2.21835 16.4816 2.28251 18.556 4.3606C20.6295 6.4396 20.701 9.7506 18.7723 11.9103L10.999 19.6946L3.22751 11.9103C1.29884 9.7506 1.37126 6.4341 3.44384 4.3606C5.52009 2.28526 8.84118 2.2156 11.0008 4.1516ZM17.258 5.65585C15.883 4.27901 13.6647 4.2231 12.2255 5.5156L11.0018 6.61376L9.77709 5.51651C8.33334 4.22218 6.11959 4.27901 4.74092 5.65768C3.37509 7.02351 3.30634 9.20976 4.56492 10.6544L10.9999 17.0995L17.4349 10.6553C18.6944 9.20976 18.6257 7.02626 17.258 5.65585Z" fill="#2D2D2D"/>
</g>
<defs>
<clipPath id="clip0_37_578">
<rect width="22" height="22" fill="white"/>
</clipPath>
</defs>
</svg>
