<svg width="22" height="22" viewBox="0 0 22 22" fill="none" xmlns="http://www.w3.org/2000/svg">
<g clip-path="url(#clip0_37_576)">
<path d="M10.0833 1.83334C14.6373 1.83334 18.3333 5.52934 18.3333 10.0833C18.3333 14.6373 14.6373 18.3333 10.0833 18.3333C5.52925 18.3333 1.83325 14.6373 1.83325 10.0833C1.83325 5.52934 5.52925 1.83334 10.0833 1.83334ZM10.0833 16.5C13.628 16.5 16.4999 13.6281 16.4999 10.0833C16.4999 6.53768 13.628 3.66668 10.0833 3.66668C6.53758 3.66668 3.66659 6.53768 3.66659 10.0833C3.66659 13.6281 6.53758 16.5 10.0833 16.5ZM17.8612 16.5651L20.4544 19.1574L19.1573 20.4545L16.565 17.8613L17.8612 16.5651Z" fill="#2D2D2D"/>
</g>
<defs>
<clipPath id="clip0_37_576">
<rect width="22" height="22" fill="white"/>
</clipPath>
</defs>
</svg>
